<svg width="300" height="70" viewBox="0 0 300 70" fill="none" xmlns="http://www.w3.org/2000/svg">
<g clip-path="url(#clip0_736_251)">
<path d="M157.804 42.1875C150.215 42.1875 144.2 48.0812 144.2 55.8438C144.2 63.6063 150.358 69.5 157.804 69.5C165.394 69.5 171.408 63.4625 171.408 55.8438C171.408 48.0812 165.394 42.1875 157.804 42.1875ZM157.804 47.65C162.387 47.65 165.823 51.1 165.823 55.8438C165.823 60.5875 162.243 64.0375 157.804 64.0375C153.222 64.0375 149.785 60.5875 149.785 55.8438C149.642 51.1 153.222 47.65 157.804 47.65Z" fill="#BDBDBD"/>
<path d="M271.074 60.7312V48.2249H277.518V42.7624H271.074V35.4312L265.489 37.1562V42.7624H260.764V48.2249H265.489V60.7312C265.489 67.4874 268.926 69.9312 277.518 68.7812V63.7499C273.222 64.0374 271.074 64.0374 271.074 60.7312Z" fill="#BDBDBD"/>
<path d="M300 63.6061H287.255L300 48.2248V43.0498H280.239V48.2248H292.983L280.239 63.6061V68.9248H300V63.6061Z" fill="#BDBDBD"/>
<path d="M77.0405 2.225L82.7684 0.5V36.8687H77.0405V34.8562C74.463 36.725 71.1694 37.7313 67.5895 37.4438C61.2887 36.8688 55.9904 31.6938 55.4176 25.225C55.4176 24.65 55.2744 24.2188 55.2744 23.6438C55.2744 23.2125 55.2744 22.7812 55.4176 22.35C55.4176 22.2062 55.4176 22.2063 55.4176 22.0625V21.9187V21.775C55.4176 21.4875 55.5608 21.2 55.5608 20.9125C55.5608 20.7687 55.5608 20.625 55.704 20.625V20.4812V20.3375C55.704 20.05 55.8472 19.9063 55.8472 19.6188C55.8472 19.475 55.9904 19.3313 55.9904 19.1875V19.0437C56.1336 18.7562 56.1336 18.6125 56.2768 18.325C56.2768 18.1812 56.42 18.0375 56.42 17.8938C56.42 17.8938 56.42 17.8938 56.42 17.75C56.5632 17.4625 56.7064 17.3188 56.7064 17.0312C56.8496 16.8875 56.8496 16.7437 56.9928 16.6C57.136 16.4562 57.2792 16.1688 57.4224 16.025C57.5656 15.8813 57.7088 15.7375 57.852 15.5938C57.9952 15.45 58.1384 15.1625 58.2816 15.0188C58.4248 14.875 58.568 14.7313 58.7112 14.5875C58.8544 14.4438 58.9976 14.3 59.284 14.0125C59.4272 13.8687 59.5704 13.725 59.7136 13.5813C59.8568 13.4375 60.1431 13.2938 60.2863 13.15C60.8591 12.8625 61.0023 12.7187 61.1455 12.575C61.2887 12.4312 61.5751 12.2875 61.7183 12.1438H61.8615C62.0047 12 62.1479 12 62.2911 11.8563C62.5775 11.7125 62.7207 11.5687 63.0071 11.5687H63.1503C63.2935 11.5687 63.4367 11.425 63.5799 11.425C63.8663 11.2812 64.0095 11.2813 64.2959 11.1375H64.4391C64.5823 11.1375 64.7255 10.9938 64.8687 10.9938C65.1551 10.85 65.2983 10.85 65.5847 10.85H65.7279H65.8711C66.0143 10.85 66.1575 10.85 66.3007 10.7062C66.5871 10.7062 66.8735 10.5625 67.1599 10.5625H67.3031C67.4463 10.5625 67.4463 10.5625 67.5895 10.5625C68.019 10.5625 68.5918 10.4188 69.0214 10.4188C72.0286 10.4188 74.7494 11.425 77.0405 13.0062V2.225ZM67.3031 31.6938C72.4582 32.8438 77.0405 28.8187 77.0405 23.9312V23.7875C77.0405 19.3313 73.4606 15.7375 69.0214 15.7375C68.735 15.7375 68.4486 15.7375 68.1622 15.7375H68.019C68.019 15.7375 68.019 15.7375 67.8758 15.7375C67.7327 15.7375 67.4463 15.7375 67.3031 15.8812H67.1599C67.0167 15.8812 66.8735 16.025 66.7303 16.025C66.5871 16.025 66.4439 16.1687 66.4439 16.1687C66.3007 16.1687 66.1575 16.3125 66.0143 16.3125C65.8711 16.3125 65.8711 16.4563 65.7279 16.4563C65.5847 16.6 65.4415 16.6 65.2983 16.7438C65.1551 16.7438 65.1551 16.8875 65.0119 16.8875C64.8687 17.0312 64.7255 17.0313 64.5823 17.175C64.5823 17.175 64.5823 17.175 64.4391 17.175L64.2959 17.3187C64.1527 17.4625 64.0095 17.6062 63.8663 17.75C63.8663 17.75 63.8663 17.75 63.7231 17.8938C63.5799 18.0375 63.2935 18.325 63.1503 18.4688C63.0071 18.6125 62.8639 18.9 62.7207 19.0437C62.7207 19.0437 62.7207 19.1875 62.5775 19.1875C62.5775 19.1875 62.5775 19.1875 62.5775 19.3313C62.4343 19.475 62.4343 19.6187 62.2911 19.7625C62.2911 19.9062 62.1479 19.9063 62.1479 20.05C62.0047 20.1938 62.0047 20.3375 62.0047 20.4812C62.0047 20.625 61.8615 20.625 61.8615 20.7688C61.8615 20.9125 61.7183 21.0562 61.7183 21.2C61.7183 21.3437 61.7183 21.4875 61.5751 21.4875C61.5751 21.6313 61.5751 21.775 61.4319 22.0625C61.4319 22.2063 61.4319 22.35 61.4319 22.35C61.4319 22.4937 61.4319 22.7813 61.4319 22.925V23.0687C61.4319 23.2125 61.4319 23.2125 61.4319 23.3562C61.4319 23.9312 61.4319 24.5063 61.5751 25.225C61.8615 28.675 64.2959 31.1188 67.3031 31.6938Z" fill="#BDBDBD"/>
<path d="M21.6229 10.9938V12.7188C19.4749 11.1376 16.611 10.1313 13.747 10.1313C5.72791 10.1313 -0.716008 17.1751 0.143181 25.3688C0.859171 31.6938 6.0143 36.8688 12.315 37.5876C15.895 37.8751 19.1885 36.8688 21.7661 35.0001V37.0126H27.494V10.9938H21.6229ZM21.6229 23.9313C21.6229 28.9626 17.0406 32.8438 11.8854 31.6938C8.87826 31.1188 6.4439 28.6751 5.72791 25.5126C4.72552 20.3376 8.73507 15.7376 13.747 15.7376C18.0429 15.7376 21.6229 19.3313 21.6229 23.9313Z" fill="#BDBDBD"/>
<path d="M187.16 42.4751V48.5126C183.437 48.2251 179.141 49.9501 179.141 55.8438V68.9251H173.556V42.9063H179.141V47.2188C180.716 43.7688 183.866 42.4751 187.16 42.4751Z" fill="#BDBDBD"/>
<path d="M200.62 42.1875C193.031 42.1875 187.017 48.0812 187.017 55.8438C187.017 63.6063 193.174 69.5 200.62 69.5C208.21 69.5 214.224 63.4625 214.224 55.8438C214.367 48.0812 208.353 42.1875 200.62 42.1875ZM200.62 47.65C205.203 47.65 208.64 51.1 208.64 55.8438C208.64 60.5875 205.06 64.0375 200.62 64.0375C196.038 64.0375 192.601 60.5875 192.601 55.8438C192.601 51.1 196.181 47.65 200.62 47.65Z" fill="#BDBDBD"/>
<path d="M251.169 42.9062L243.007 68.925H237.565L232.124 51.3875L226.682 68.925H221.241L213.079 42.9062H218.95L223.962 60.875L229.403 42.9062H234.702L240.143 60.875L245.155 42.9062H251.169Z" fill="#BDBDBD"/>
<path d="M258.616 42.9062H253.031V68.925H258.616V42.9062Z" fill="#BDBDBD"/>
<path d="M98.5203 10.5625V16.6C94.7972 16.3125 90.5012 18.0375 90.5012 23.9312V37.0125H84.9165V10.9938H90.5012V15.3063C92.0764 11.8563 95.2268 10.5625 98.5203 10.5625Z" fill="#BDBDBD"/>
<path d="M132.172 42.1877C128.592 42.1877 125.871 43.4814 124.153 46.2127V31.9814L119.57 29.3939C119.284 29.8252 118.998 30.2564 118.568 30.5439C117.136 31.6939 115.274 32.5564 112.84 32.5564C108.687 32.5564 105.394 30.4002 104.535 26.3752H125.298C125.298 25.6564 125.441 24.7939 125.441 24.0752C125.441 16.6002 120.143 10.4189 112.41 10.4189C104.391 10.4189 98.8066 16.3127 98.8066 24.0752C98.8066 31.8377 104.248 37.7314 112.84 37.7314C114.988 37.7314 116.85 37.3002 118.568 36.5814V68.9252H124.153V54.9814C124.153 49.6627 127.017 47.5064 130.74 47.5064C134.177 47.5064 136.468 49.6627 136.468 53.5439V68.9252H142.052V52.8252C142.052 46.0689 137.9 42.1877 132.172 42.1877ZM112.267 15.4502C115.704 15.4502 118.854 17.3189 119.714 21.7752H104.535C105.251 17.8939 108.115 15.4502 112.267 15.4502Z" fill="#BDBDBD"/>
<path d="M147.351 29.2499C146.062 31.1187 143.771 32.4124 140.62 32.4124C136.468 32.4124 133.174 30.3999 132.315 26.2312H152.935C153.079 25.5124 153.079 24.6499 153.079 23.9312C153.079 16.4562 147.78 10.2749 140.048 10.2749C131.885 10.2749 126.444 16.3124 126.444 23.9312C126.444 31.6937 132.029 37.5874 140.477 37.5874C145.489 37.5874 149.499 35.4312 151.79 31.9812L147.351 29.2499ZM140.191 15.4499C143.628 15.4499 146.778 17.3187 147.637 21.7749H132.315C133.174 17.8937 136.038 15.4499 140.191 15.4499Z" fill="#BDBDBD"/>
<path d="M211.36 32.5564C214.511 32.5564 216.802 31.1189 218.091 29.3939L222.673 32.1252C220.239 35.7189 216.372 37.7314 211.36 37.7314C202.768 37.7314 197.327 31.8377 197.327 24.0752C197.327 16.3127 202.912 10.4189 210.931 10.4189C218.663 10.4189 223.962 16.6002 223.962 24.0752C223.962 24.7939 223.819 25.6564 223.819 26.3752H203.198C203.914 30.4002 207.208 32.5564 211.36 32.5564ZM218.234 21.7752C217.518 17.3189 214.224 15.4502 210.788 15.4502C206.635 15.4502 203.771 17.8939 202.912 21.7752H218.234Z" fill="#BDBDBD"/>
<path d="M253.031 37.0127H258.616V31.9814H253.031V37.0127Z" fill="#BDBDBD"/>
<path d="M43.2459 10.2749C39.666 10.2749 36.9452 11.5687 35.2268 14.2999V11.2812V10.8499H29.6421V13.0062V36.8687H35.2268V22.9249C35.2268 17.6062 38.0908 15.4499 41.8139 15.4499C45.3939 15.4499 47.5419 17.4624 47.5419 21.4874V36.8687H53.1266V21.0562C53.2698 14.2999 49.117 10.2749 43.2459 10.2749Z" fill="#BDBDBD"/>
<path d="M232.267 37.0124H226.683V10.9937H232.267V14.2999C233.986 11.5687 236.706 10.2749 240.286 10.2749C246.014 10.2749 250.167 14.1562 250.167 20.9124V36.8687H244.582V21.6312C244.582 17.7499 242.291 15.5937 238.854 15.5937C235.131 15.5937 232.267 17.7499 232.267 23.0687V37.0124Z" fill="#BDBDBD"/>
<path d="M160.525 18.1812C160.525 16.3124 162.243 15.4499 164.248 15.4499C166.253 15.4499 167.971 16.3124 168.974 18.0374L173.842 15.5937C171.981 12.2874 168.544 10.2749 164.248 10.2749C158.95 10.2749 154.797 13.2937 154.797 18.1812C154.797 23.6437 159.523 24.9374 163.532 26.0874C166.396 26.9499 168.687 27.5249 168.687 29.5374C168.687 31.5499 166.826 32.4124 164.248 32.4124C161.814 32.4124 159.809 31.4062 158.807 29.5374L153.795 31.9812C155.513 35.4312 159.236 37.5874 164.105 37.5874C169.69 37.5874 174.272 34.7124 174.272 29.5374C174.272 23.9312 169.403 22.4937 165.537 21.4874C162.959 20.7687 160.525 20.0499 160.525 18.1812Z" fill="#BDBDBD"/>
<path d="M185.871 15.4502C183.866 15.4502 182.148 16.3127 182.148 18.1814C182.148 20.1939 184.582 20.7689 187.303 21.6314C191.313 22.7814 196.038 24.0752 196.038 29.6814C196.038 34.8564 191.599 37.7314 185.871 37.7314C180.859 37.7314 177.279 35.5752 175.561 32.1252L180.573 29.6814C181.575 31.5502 183.437 32.5564 186.014 32.5564C188.449 32.5564 190.453 31.6939 190.453 29.6814C190.453 27.8127 188.019 27.0939 185.298 26.2314C181.289 25.0814 176.563 23.7877 176.563 18.3252C176.563 13.4377 180.716 10.4189 186.014 10.4189C190.167 10.4189 193.747 12.4314 195.609 15.7377L190.74 18.1814C189.594 16.3127 187.876 15.4502 185.871 15.4502Z" fill="#BDBDBD"/>
</g>
<defs>
<clipPath id="clip0_736_251">
<rect width="300" height="69" fill="white" transform="translate(0 0.5)"/>
</clipPath>
</defs>
</svg>
