<svg width="300" height="62" viewBox="0 0 300 62" fill="none" xmlns="http://www.w3.org/2000/svg">
<g clip-path="url(#clip0_736_224)">
<path d="M168.444 12.5703C168.96 12.5703 169.089 13.2192 169.089 13.7384C169.218 15.815 169.347 17.7618 169.347 19.8384C169.476 21.7852 169.476 23.732 169.476 25.6788C170.636 24.7703 171.668 23.8618 172.958 23.4724C175.022 22.5639 177.472 22.5639 179.536 23.6022C181.728 24.7703 183.147 26.8469 183.921 29.0533C184.566 31.2597 184.824 33.5958 184.695 35.8022C184.437 38.5278 183.792 41.1235 182.244 43.3299C181.341 44.6278 180.181 45.6661 178.633 46.1852C176.182 47.0937 173.603 46.7044 171.41 45.4065C170.765 45.0171 170.12 44.3682 169.605 43.849C169.347 44.6278 169.218 45.4065 168.96 46.1852C167.799 46.1852 166.767 46.315 165.606 46.0554C165.993 44.2384 165.993 42.2916 166.122 40.4746C166.251 33.8554 166.122 27.2363 166.122 20.7469C165.993 18.1512 166.122 15.5554 165.735 13.0895C166.509 12.8299 167.541 12.5703 168.444 12.5703ZM176.956 26.198C175.924 25.9384 174.893 25.9384 173.99 26.0682C172.184 26.3278 170.765 27.6256 169.605 28.9235C169.605 29.3129 169.605 29.832 169.605 30.2214V40.7341C169.605 41.1235 169.863 41.3831 170.12 41.5129C171.926 43.2001 174.506 43.9788 176.827 43.4597C177.988 43.2001 179.02 42.4214 179.536 41.3831C180.439 39.9554 180.697 38.2682 180.826 36.581C180.955 35.2831 181.084 33.9852 180.955 32.8171C180.955 31.3895 180.568 29.832 179.794 28.5341C179.149 27.2363 178.117 26.4575 176.956 26.198ZM191.789 13.4788C192.433 13.2192 193.336 13.2192 193.981 13.6086C194.626 13.998 195.142 14.6469 195.4 15.2958C195.787 16.8533 194.626 18.5405 193.078 18.6703C191.918 18.8001 190.628 18.1512 190.241 16.8533C189.725 15.6852 190.499 13.998 191.789 13.4788ZM85.1248 16.2044C86.8015 15.0363 88.8651 14.1278 90.9288 14.1278C93.1214 14.1278 95.314 14.2575 97.2486 15.1661C98.0225 15.5554 98.7963 15.9448 99.5702 16.4639C99.0543 17.3724 98.4094 18.0214 97.7645 18.8001C96.9907 18.4107 96.2168 17.8916 95.314 17.5022C93.2503 16.7235 90.7998 16.5937 88.7362 17.5022C86.9305 18.1512 85.5117 19.5788 84.6089 21.2661C84.093 22.5639 83.5771 23.8618 83.3191 25.1597C83.0612 26.4575 83.0612 27.7554 82.9322 29.0533C82.9322 30.7405 82.8032 32.5575 82.9322 34.2448C83.1902 36.7107 84.093 39.0469 85.6407 40.8639C87.0595 42.5512 89.1231 43.4597 91.3157 43.7192C92.4765 43.7192 93.5083 43.7192 94.6691 43.4597C95.9589 43.2001 97.1196 42.4214 98.4094 41.9022C99.0543 42.5512 99.6992 43.4597 100.344 44.2384C99.4412 44.7575 98.5384 45.2767 97.5066 45.6661C94.927 46.7044 91.9606 46.8341 89.2521 46.4448C87.1884 46.0554 85.3828 45.0171 83.835 43.7192C82.0294 42.1618 80.7396 40.0852 79.9657 37.8788C79.4498 36.3214 79.1919 34.7639 79.0629 33.2065C79.0629 32.0384 78.8049 30.8703 79.0629 29.5724C79.0629 27.3661 79.4498 25.0299 80.3527 22.9533C81.2555 20.3575 82.8032 17.8916 85.1248 16.2044Z" fill="#BDBDBD"/>
<path d="M0 0.5V61.5H60.2322V0.5H0ZM41.0146 18.0213C38.1771 23.6021 35.2107 29.183 32.2442 34.7638C32.1152 35.0234 32.1152 35.1532 32.1152 35.4128C32.1152 39.4362 32.1152 43.4596 32.1152 47.3532C30.6965 47.3532 29.2777 47.3532 27.859 47.3532C27.859 43.4596 27.859 39.566 27.859 35.6723C27.859 35.283 27.859 34.7638 27.601 34.3745C24.8925 29.3128 22.313 24.2511 19.6045 19.0596C18.9596 17.8915 18.3147 16.7234 17.7988 15.4255C18.0568 15.4255 18.3147 15.2957 18.5727 15.2957C19.8624 15.2957 21.1522 15.2957 22.442 15.4255C22.6999 15.4255 22.6999 15.5553 22.8289 15.6851C24.7635 19.7085 26.6982 23.8617 28.7618 28.0149C29.1488 28.9234 29.5357 29.7021 30.0516 30.4809C30.4385 29.8319 30.8255 29.183 31.2124 28.4043C33.405 23.9915 35.5976 19.7085 37.7902 15.2957C39.2089 15.2957 40.6277 15.166 42.1754 15.4255C41.9175 16.5936 41.4015 17.2426 41.0146 18.0213Z" fill="#BDBDBD"/>
<path d="M250.473 17.5023C251.634 17.1129 252.795 16.8533 254.084 16.5938C253.826 18.8001 253.697 21.0065 253.697 23.3427C255.503 23.3427 257.438 23.3427 259.243 23.4725C258.985 24.381 258.598 25.1597 258.212 25.9384C256.664 25.9384 255.116 25.9384 253.439 25.9384C253.439 28.015 253.439 30.0916 253.439 32.1682C253.439 33.7257 253.568 35.4129 253.439 37.1001C253.439 38.9172 253.439 40.864 253.568 42.681C253.568 43.4597 254.342 43.9789 254.987 44.2384C256.148 44.498 257.309 44.3682 258.47 44.1086C258.727 44.7576 258.856 45.5363 258.856 46.1852C257.825 46.7044 256.664 46.8342 255.503 46.964C253.955 46.964 252.15 46.7044 250.989 45.5363C250.086 44.6278 250.086 43.2001 249.957 42.032C249.828 39.4363 249.957 36.7108 249.828 34.115C249.828 31.3895 249.828 28.7938 249.828 26.0682C248.796 26.0682 247.764 26.0682 246.862 26.0682C246.862 25.1597 246.862 24.2512 246.862 23.4725C247.893 23.4725 248.796 23.4725 249.828 23.4725C250.215 21.3959 250.215 19.3193 250.473 17.5023ZM113.758 22.6938C114.66 22.6938 115.692 22.6937 116.595 22.9533C118.659 23.6023 120.464 25.1597 121.496 26.9767C122.399 28.664 123.044 30.481 123.173 32.4278C123.302 35.0235 123.431 37.6193 122.528 40.0852C121.754 42.4214 120.206 44.498 118.014 45.6661C115.821 46.8342 113.242 46.964 110.92 46.315C108.856 45.7959 107.051 44.3682 105.761 42.5512C104.471 40.6044 103.955 38.2682 103.955 35.8023C103.955 33.5959 103.826 31.2597 104.6 29.0533C105.245 26.9767 106.664 25.0299 108.598 23.732C109.501 23.2129 110.404 22.6938 111.436 22.564C112.21 22.6938 112.984 22.6938 113.758 22.6938ZM111.952 25.6789C110.791 25.9384 109.63 26.7172 108.985 27.7555C108.083 29.3129 107.825 31.1299 107.825 32.9469C107.696 34.2448 107.825 35.5427 107.954 36.8406C108.212 38.398 108.47 40.0852 109.243 41.5129C110.017 43.0703 111.694 43.7193 113.371 43.8491C114.918 43.9789 116.595 43.5895 117.756 42.2916C118.659 41.2533 119.175 40.0852 119.304 38.6576C119.562 36.9703 119.562 35.2831 119.433 33.7257C119.433 32.0384 119.175 30.2214 118.53 28.5342C118.143 27.4959 117.369 26.7172 116.466 26.198C115.047 25.4193 113.5 25.2895 111.952 25.6789ZM129.493 23.4725C130.525 23.0831 131.556 22.8235 132.717 22.6938C133.104 23.732 133.362 24.7703 133.491 25.9384C134.265 25.5491 134.781 24.9001 135.555 24.5108C137.102 23.3427 139.037 22.6938 140.972 22.6938C141.359 22.6938 141.875 22.8235 142.261 23.0831C142.906 23.4725 143.551 23.732 144.196 24.2512C144.712 24.7703 145.099 25.5491 145.486 26.198C146.389 25.8086 147.034 25.0299 147.807 24.5108C149.097 23.6023 150.645 22.8235 152.451 22.6938C153.998 22.564 155.546 23.0831 156.707 24.1214C157.223 24.6406 157.739 25.1597 157.997 25.8086C158.255 26.4576 158.384 27.1065 158.384 27.8852C158.641 31.5193 158.513 35.2831 158.641 38.9172C158.641 41.3831 158.641 43.8491 158.641 46.315C157.481 46.315 156.191 46.315 155.03 46.315C155.03 42.681 155.03 38.9172 155.03 35.2831C155.03 32.9469 155.03 30.6108 154.901 28.1448C154.772 27.3661 154.385 26.7172 153.74 26.198C153.095 25.8086 152.193 25.8086 151.29 25.8086C149.871 25.9384 148.71 26.8469 147.549 27.7555C147.034 28.1448 146.518 28.664 146.002 29.0533C145.873 29.1831 145.873 29.4427 145.873 29.5725C145.873 35.1533 145.873 40.6044 145.873 46.1852C144.712 46.1852 143.422 46.1852 142.261 46.1852V33.2065C142.261 32.1682 142.261 31.1299 142.261 30.0916C142.261 29.0533 142.261 27.8852 141.875 26.9767C141.101 25.9384 139.682 25.6789 138.521 26.0682C136.715 26.4576 135.168 27.6257 133.749 28.9235C133.491 29.0533 133.491 29.3129 133.491 29.5725C133.491 35.1533 133.491 40.7342 133.491 46.315C132.459 46.315 131.427 46.315 130.396 46.315C130.267 40.6044 130.396 34.8938 130.138 29.1831C130.138 27.8852 130.138 26.5874 129.88 25.2895C129.751 24.6406 129.493 23.9916 129.493 23.4725ZM191.015 23.3427C192.175 23.2129 193.336 22.9533 194.497 22.6938C194.626 25.9384 194.626 29.1831 194.626 32.298C194.626 36.9703 194.626 41.5129 194.626 46.1852C193.465 46.1852 192.175 46.1852 191.015 46.1852C191.015 39.5661 191.015 32.9469 191.015 26.3278C191.015 25.4193 190.886 24.2512 191.015 23.3427ZM237.317 22.8235C239.768 23.2129 241.832 25.5491 241.96 28.1448C242.089 31.9086 241.96 35.8023 241.96 39.5661V40.7342C241.96 41.5129 241.96 42.2916 242.218 42.9406C242.347 43.7193 243.121 44.1086 243.637 44.498C243.121 45.1469 242.734 46.0555 242.089 46.5746C241.703 46.964 241.187 46.5746 240.929 46.315C240.026 45.6661 239.51 44.7576 238.994 43.7193C238.22 44.1086 237.704 44.8874 236.801 45.2767C235.512 46.1852 233.964 46.5746 232.287 46.5746C230.868 46.5746 229.45 46.315 228.16 45.6661C226.096 44.498 224.936 42.1618 225.065 39.8257C225.065 37.6193 226.225 35.4129 227.902 34.115C229.966 32.5576 232.674 32.0384 235.254 31.7789C236.414 31.6491 237.575 31.6491 238.865 31.6491C238.865 30.481 238.865 29.3129 238.607 28.1448C238.478 27.2363 237.962 26.198 237.059 25.6789C236.028 25.1597 234.738 25.0299 233.577 25.2895C231.384 25.5491 229.321 26.4576 227.515 27.7555C226.999 27.1065 226.483 26.4576 226.096 25.6789C225.838 25.2895 226.225 25.0299 226.483 24.9001C228.934 23.6023 231.513 22.4342 234.351 22.4342H235.512C236.157 22.6937 236.672 22.6938 237.317 22.8235ZM235.77 34.3746C234.609 34.5044 233.577 34.5044 232.416 34.764C231.126 35.1533 229.966 35.932 229.192 37.1001C228.805 37.7491 228.805 38.5278 228.805 39.3065C228.805 40.0852 228.676 40.9937 229.063 41.7725C229.321 42.5512 229.966 43.3299 230.739 43.5895C231.642 43.9789 232.674 43.9789 233.706 43.9789C234.867 43.8491 235.899 43.2001 236.801 42.4214C237.575 41.7725 238.349 40.9937 238.349 39.9555C238.478 38.1384 238.478 36.1916 238.478 34.3746C237.575 34.5044 236.672 34.2448 235.77 34.3746ZM274.979 22.9533C277.042 23.4725 278.848 24.7703 280.138 26.4576C281.169 27.8852 281.814 29.4427 282.072 31.1299C282.33 32.6874 282.459 34.3746 282.33 36.0618C282.33 38.7874 281.427 41.3831 279.88 43.4597C278.59 45.1469 276.526 46.1852 274.592 46.5746C272.141 46.964 269.433 46.5746 267.24 45.0172C265.434 43.7193 264.273 41.6427 263.629 39.4363C263.242 38.2682 263.242 37.2299 263.113 36.0618C263.113 34.115 263.113 32.298 263.371 30.3512C263.887 28.2746 264.918 26.198 266.466 24.6406C267.627 23.4725 269.175 22.8235 270.722 22.564C272.27 22.564 273.689 22.6937 274.979 22.9533ZM271.109 25.6789C269.433 25.9384 268.014 27.2363 267.498 28.7937C266.853 30.481 266.853 32.298 266.853 33.9852C266.853 35.6725 266.853 37.3597 267.24 38.9172C267.498 40.0852 267.756 41.1235 268.53 42.032C269.175 42.9406 270.335 43.4597 271.367 43.5895C271.754 43.7193 272.27 43.7193 272.657 43.7193H273.044H273.431C274.334 43.5895 275.108 43.3299 275.881 42.9406C276.784 42.4214 277.429 41.5129 277.816 40.4746C278.203 39.3065 278.332 38.0086 278.461 36.8406C278.461 35.4129 278.59 33.9852 278.461 32.4278C278.332 30.8703 278.203 29.3129 277.429 28.015C276.784 26.9767 275.881 26.198 274.721 25.6789C273.56 25.4193 272.27 25.4193 271.109 25.6789ZM288.521 23.6023C289.682 23.3427 290.714 22.9533 291.746 22.6938C292.39 23.8618 292.39 25.1597 292.519 26.3278C293.035 25.9384 293.551 25.4193 294.067 24.9001C295.615 23.3427 297.936 22.4342 300.129 22.8235V23.0831C299.613 24.1214 299.355 25.2895 298.839 26.4576C298.839 26.7172 298.452 26.5874 298.323 26.5874C297.421 26.5874 296.26 26.5874 295.486 27.1065C294.583 27.6257 293.938 28.2746 293.293 29.0533C292.648 29.832 292.777 30.8703 292.777 31.7789C292.777 33.0767 292.648 34.3746 292.777 35.6725C292.777 39.1767 292.777 42.8108 292.777 46.315C291.617 46.315 290.327 46.315 289.166 46.315C289.166 42.4214 289.166 38.398 289.166 34.5044C289.166 31.7789 289.166 29.1831 289.037 26.4576C288.908 25.4193 288.65 24.5108 288.521 23.6023ZM201.591 23.6023C202.623 23.2129 203.783 22.8235 204.815 22.8235C205.202 23.8618 205.46 25.0299 205.589 26.0682C206.492 25.4193 207.395 24.6406 208.298 24.1214C210.232 22.9533 212.554 22.1746 214.617 22.9533C215.907 23.3427 217.068 24.1214 217.842 25.2895C218.487 26.0682 218.616 27.2363 218.745 28.1448C219.003 31.7789 218.874 35.2831 218.874 38.9172C218.874 41.3831 218.874 43.7193 218.874 46.0554C217.713 46.0554 216.423 46.0554 215.262 46.0554C215.262 42.1618 215.133 38.1384 215.133 34.2448C215.133 32.0384 215.133 29.832 214.875 27.6257C214.488 26.5874 213.586 25.6789 212.425 25.6789C211.651 25.6789 210.748 25.6789 209.974 25.9384C208.298 26.5874 206.75 27.6257 205.331 28.7937C205.331 34.5044 205.331 40.3448 205.331 46.0554C204.299 46.0554 203.267 46.0554 202.236 46.0554C202.236 42.8108 202.107 39.5661 202.107 36.1916C202.107 32.8172 202.107 29.4427 201.849 26.0682C202.107 25.4193 201.849 24.5108 201.591 23.6023Z" fill="#BDBDBD"/>
</g>
<defs>
<clipPath id="clip0_736_224">
<rect width="300" height="61" fill="white" transform="translate(0 0.5)"/>
</clipPath>
</defs>
</svg>
