<svg width="300" height="50" viewBox="0 0 300 50" fill="none" xmlns="http://www.w3.org/2000/svg">
<g clip-path="url(#clip0_736_274)">
<path d="M0 31.8408L16.0714 23.8806L0 15.9204V31.8408Z" fill="#9C9C9C"/>
<path d="M0 31.8406V47.761L32.1429 31.8406L16.0714 23.8804L0 31.8406Z" fill="#585858"/>
<path d="M0 47.7612H48.2143V39.801L32.1429 31.8408L0 47.7612Z" fill="#9C9C9C"/>
<path d="M0 0V15.9204L16.0714 23.8806L32.1429 15.9204L0 0Z" fill="#585858"/>
<path d="M0 0L32.1429 15.9204L48.2143 7.9602V0H0Z" fill="#9C9C9C"/>
<path d="M32.143 15.9202L16.0715 23.8804L32.143 31.8406L48.2144 39.8008V23.8804V7.95996L32.143 15.9202Z" fill="#585858"/>
<path d="M278.739 28.856C277.4 28.856 275.977 28.9389 274.637 29.1047C272.126 29.5193 270.787 30.7631 270.787 32.919C270.787 34.8261 272.043 35.8211 273.884 35.8211C276.479 35.8211 278.739 34.0798 278.739 30.7631V28.856ZM272.126 40.2158C267.522 40.2158 264.593 37.3966 264.593 33.0019C264.593 29.0218 267.188 26.6172 271.373 25.6221C273.8 25.2075 276.228 24.9588 278.655 25.0417C278.655 21.642 277.232 20.4812 273.717 20.4812C271.457 20.5641 269.197 21.0616 267.104 22.0566V17.3303C269.448 16.3352 271.959 15.9206 274.554 15.9206C282.003 15.9206 284.766 19.2374 284.766 25.6221V34.992H287.695V39.7183H279.325L278.823 37.3137H278.739C277.065 39.2208 274.637 40.2987 272.126 40.2158ZM196.959 28.856C195.62 28.856 194.197 28.9389 192.857 29.1047C190.346 29.5193 189.007 30.7631 189.007 32.919C189.007 34.8261 190.262 35.8211 192.104 35.8211C194.699 35.8211 196.959 34.0798 196.959 30.7631V28.856ZM190.346 40.2158C185.742 40.2158 182.813 37.3966 182.813 33.0019C182.813 29.0218 185.407 26.6172 189.593 25.6221C192.02 25.2075 194.448 24.9588 196.875 25.0417C196.875 21.642 195.452 20.4812 191.936 20.4812C189.676 20.5641 187.416 21.0616 185.324 22.0566V17.3303C187.668 16.3352 190.179 15.9206 192.69 15.9206C200.14 15.9206 202.902 19.2374 202.902 25.6221V34.992H205.832V39.7183H197.461L197.043 37.3137H196.959C195.368 39.2208 192.941 40.2987 190.346 40.2158ZM104.464 28.856C103.125 28.856 101.702 28.9389 100.363 29.1047C97.8517 29.5193 96.5124 30.7631 96.5124 32.919C96.5124 34.8261 97.768 35.8211 99.6095 35.8211C102.204 35.8211 104.464 34.0798 104.464 30.7631V28.856ZM97.8517 40.2158C93.2479 40.2158 90.3182 37.3966 90.3182 33.0019C90.3182 29.0218 92.9131 26.6172 97.182 25.6221C99.6095 25.2075 102.037 24.9588 104.464 25.0417C104.464 21.642 103.041 20.4812 99.5258 20.4812C97.2657 20.5641 95.0057 21.0616 92.9968 22.0566V17.3303C95.3405 16.3352 97.8517 15.9206 100.363 15.9206C107.813 15.9206 110.575 19.2374 110.575 25.6221V34.992H113.505V39.7183H105.134L104.632 37.3137H104.548C102.874 39.2208 100.447 40.2987 97.8517 40.2158ZM226.507 28.0268C226.507 23.715 224.33 20.8128 220.982 20.8128C217.634 20.8128 215.541 23.715 215.541 28.0268C215.541 32.3386 217.634 35.3236 220.899 35.3236C224.247 35.2407 226.507 32.3386 226.507 28.0268ZM232.785 28.0268C232.785 35.2407 228.599 40.2987 222.573 40.2987C218.973 40.2987 216.797 38.8891 215.793 37.3966H215.709V47.181L209.598 49.6686V21.0616H206.501V16.3352H215.207L215.625 19.4032H215.709C216.462 18.1594 218.304 15.9206 222.573 15.9206C228.851 15.9206 232.785 20.647 232.785 28.0268ZM143.973 15.9206C141.044 15.7548 138.198 17.0815 136.356 19.4032H136.272L135.854 16.3352H126.814V21.0616H130.162V39.7183H136.272V28.9389C136.272 23.1346 139.37 21.0616 142.048 21.0616C144.559 21.0616 145.731 22.6371 145.731 26.2026V39.7183H151.842V24.7929C151.842 18.9057 149.079 15.9206 143.973 15.9206ZM171.764 34.6603C165.486 34.6603 161.803 30.5143 161.803 23.7979C161.803 17.2473 165.486 12.8526 171.178 12.8526C172.601 12.8526 173.94 13.0185 175.279 13.3502V19.9837L180.72 17.7449V9.95049C177.958 8.37504 174.777 7.54585 171.512 7.62877C161.886 7.62877 155.357 13.516 155.357 23.9638C155.357 33.914 161.217 40.2987 171.512 40.2987C174.777 40.2987 178.041 39.4696 180.887 37.977L179.548 32.919C177.204 34.0798 174.526 34.6603 171.764 34.6603ZM297.07 34.992V6.13623L290.96 8.62379V39.7183H300.084V34.992H297.07ZM82.0314 30.2656C82.0314 27.2805 79.7713 25.6221 76.0046 25.6221H70.1452V34.992H76.0883C80.2735 34.909 82.0314 33.0019 82.0314 30.2656ZM70.1452 20.8958H75.0838C78.5994 20.8958 80.2735 19.2374 80.2735 16.9157C80.2735 14.1793 78.5994 12.8526 75.4186 12.8526H70.1452V20.8958ZM88.5604 30.5973C88.5604 36.6503 83.7055 39.7183 76.5068 39.7183H63.951V12.7697H60.0168V8.04336H75.4186C79.5202 8.04336 81.6965 8.62379 83.2869 9.61882C85.4633 10.9455 86.7189 13.3502 86.6352 15.8377C86.6352 19.1545 84.5425 21.725 81.1943 22.5541V22.6371C85.7144 23.5492 88.4767 26.5342 88.5604 30.5973ZM234.459 21.0616H237.807V39.7183H243.918V16.3352H234.459V21.0616ZM237.807 12.2722H243.918V6.55082H237.807V12.2722ZM114.007 21.0616H117.355V39.7183H123.466V16.3352H114.007V21.0616ZM117.355 12.2722H123.466V6.55082H117.355V12.2722ZM256.724 16.3352H262.919V21.0616H256.724V31.3435C256.724 33.914 257.31 35.4065 259.822 35.4065C260.742 35.3236 261.663 35.2407 262.584 34.992V39.5525C260.993 39.9671 259.403 40.1329 257.813 40.2158C253.041 40.2158 250.614 37.8941 250.614 32.919V21.0616H247.266V16.3352H250.614V12.3551L256.724 9.86757V16.3352Z" fill="#9C9C9C"/>
</g>
<defs>
<clipPath id="clip0_736_274">
<rect width="300" height="50" fill="white"/>
</clipPath>
</defs>
</svg>
