<svg width="300" height="40" viewBox="0 0 300 40" fill="none" xmlns="http://www.w3.org/2000/svg">
<g clip-path="url(#clip0_736_232)">
<mask id="mask0_736_232" style="mask-type:luminance" maskUnits="userSpaceOnUse" x="0" y="0" width="300" height="40">
<path d="M300 0H0V40H300V0Z" fill="white"/>
</mask>
<g mask="url(#mask0_736_232)">
<path d="M106.083 39.6L102.233 32.9333C104.033 29.4833 104.033 25.4167 104.033 20.0667C104.033 13.4 104.033 8.4 100.183 4.35C98.8568 2.90247 97.2294 1.76294 95.4154 1.01144C93.6015 0.259949 91.645 -0.0852824 89.6834 -1.6104e-06C87.7272 -0.0431688 85.7834 0.321293 83.9757 1.0702C82.168 1.8191 80.536 2.93605 79.1834 4.35C75.3334 8.21666 75.3334 13.1167 75.3334 20C75.3334 26.8833 75.1334 31.6667 79.1834 35.7C80.5256 37.1352 82.1556 38.2711 83.9667 39.0333C85.7781 39.7758 87.7272 40.1224 89.6834 40.05C90.778 40.034 91.8676 39.8998 92.9334 39.65L106.083 39.6ZM84.6501 31.0167C83.2501 29.35 82.8501 27.55 82.8501 20C82.8501 12.45 83.3334 10.6 84.6501 8.98333C85.2908 8.34396 86.0492 7.8346 86.8834 7.48333C87.7107 7.13089 88.6008 6.94948 89.5001 6.95C90.4045 6.95131 91.2997 7.13261 92.1334 7.48333C92.9625 7.83499 93.7153 8.34443 94.3501 8.98333C95.7501 10.65 96.1501 12.45 96.1501 20C96.1501 27.55 95.7501 29.3833 94.3501 31.0167C93.7303 31.674 92.9813 32.1961 92.1501 32.55C91.3069 32.8832 90.4065 33.0474 89.5001 33.0333C88.5971 33.0514 87.7002 32.8811 86.8667 32.5333C86.0326 32.1834 85.2784 31.6674 84.6501 31.0167Z" fill="#9C9C9C"/>
<path d="M194.717 0.399902H202.167V39.5999H194.717V0.399902Z" fill="#9C9C9C"/>
<path d="M14.15 40.0002C8.33333 40.0002 3.86667 38.7835 0 34.9002L4.85 30.0002C6.10306 31.1427 7.57012 32.0255 9.16639 32.5976C10.7627 33.1698 12.4565 33.4199 14.15 33.3335C18.6 33.3335 21.0167 31.6669 21.0167 28.4335C21.0396 27.8317 20.9433 27.2313 20.7333 26.6669C20.5298 26.1074 20.212 25.5966 19.8 25.1669C18.8357 24.3384 17.6338 23.8366 16.3667 23.7335L11.6667 23.0835C8.878 22.8462 6.25197 21.6713 4.21667 19.7502C3.28067 18.7111 2.55606 17.4997 2.08333 16.1835C1.58579 14.8474 1.36465 13.4243 1.43333 12.0002C1.4 5.1002 6.45 0.200195 15 0.200195C20.25 0.200195 24.3 1.4002 27.55 4.68353L22.65 9.4002C21.5939 8.42287 20.3465 7.67533 18.9867 7.20484C17.6269 6.73436 16.1843 6.55117 14.75 6.66686C10.7 6.66686 8.7 8.93353 8.7 11.6669C8.73207 12.728 9.16015 13.7388 9.9 14.5002C10.9476 15.3692 12.2072 15.9444 13.55 16.1669L18.2 16.7669C20.9783 16.842 23.6312 17.9399 25.65 19.8502C26.6841 20.9719 27.4882 22.2856 28.0167 23.7169C28.5336 25.1643 28.7656 26.698 28.7 28.2335C28.7 35.7502 22.25 40.0502 14.1333 40.0502" fill="#9C9C9C"/>
<path d="M39.5833 39.5999V0.399902H65.2333V7.06657H47.2333V16.3166H62.5666V23.3332H47.2499V32.9499H65.2499V39.6166H39.5833" fill="#9C9C9C"/>
<path d="M129.683 39.9999C121.783 39.9999 115.333 34.4999 115.333 26.1332V0.399902H123.05V25.8999C123.05 30.3999 125.7 33.0332 129.717 33.0332C133.733 33.0332 136.383 30.3499 136.383 25.8999V0.399902H143.833V26.0999C143.833 34.4332 137.633 39.9666 129.733 39.9666" fill="#9C9C9C"/>
<path d="M179.767 35.7C178.438 37.1445 176.81 38.2809 174.996 39.0295C173.183 39.7781 171.227 40.1207 169.267 40.0333C167.313 40.0866 165.37 39.7284 163.564 38.9818C161.758 38.2352 160.129 37.1171 158.783 35.7C155 31.8167 155 26.9167 155 20C155 13.0833 154.8 8.33332 158.867 4.29999C160.182 2.86842 161.794 1.74176 163.591 0.998972C165.387 0.256181 167.324 -0.0847777 169.267 -1.39287e-05C171.219 -0.0273939 173.157 0.342639 174.962 1.08759C176.767 1.83253 178.402 2.93683 179.767 4.33332C183.617 8.21665 183.617 13.1167 183.617 20.0333C183.617 26.95 183.617 31.6667 179.767 35.7ZM174.117 9.03332C173.483 8.39385 172.729 7.88626 171.898 7.53986C171.067 7.19346 170.175 7.01511 169.275 7.01511C168.375 7.01511 167.483 7.19346 166.652 7.53986C165.821 7.88626 165.067 8.39385 164.433 9.03332C163.017 10.7 162.633 12.5 162.633 20.05C162.633 27.6 163.017 29.4333 164.433 31.05C165.065 31.6935 165.818 32.2047 166.649 32.5536C167.481 32.9026 168.373 33.0823 169.275 33.0823C170.176 33.0823 171.069 32.9026 171.9 32.5536C172.732 32.2047 173.485 31.6935 174.117 31.05C175.517 29.3833 175.917 27.6 175.917 20.05C175.917 12.5 175.567 10.6 174.117 8.98332V9.03332Z" fill="#9C9C9C"/>
<path d="M237.967 39.5999L235.75 32.6666H222L219.6 39.5999H211.667L225.867 0.399902H231.667L245.817 39.5999H237.967ZM228.85 11.8166L224 26.0999H233.7L228.85 11.8166Z" fill="#9C9C9C"/>
<path d="M290.3 0.399902H300V10.1999H290.3V0.399902Z" fill="#9C9C9C"/>
<path d="M266.05 31.1666V0.399902H261.2V36.1166L266.05 31.1666Z" fill="#9C9C9C"/>
<path d="M269.45 34.7002L264.6 39.6002H300V34.7002H269.45Z" fill="#9C9C9C"/>
<path d="M275.75 21.4166V0.399902H270.9V26.3166L275.75 21.4166Z" fill="#9C9C9C"/>
<path d="M279.15 24.8999L274.283 29.7999H300V24.8999H279.15Z" fill="#9C9C9C"/>
<path d="M285.433 11.6666V0.399902H280.583V16.5166L285.433 11.6666Z" fill="#9C9C9C"/>
<path d="M288.85 15.1001L284.017 20.0001H300V15.1001H288.85Z" fill="#9C9C9C"/>
</g>
</g>
<defs>
<clipPath id="clip0_736_232">
<rect width="300" height="40" fill="white"/>
</clipPath>
</defs>
</svg>
